<svg width="123" height="122" viewBox="0 0 123 122" fill="none" xmlns="http://www.w3.org/2000/svg">
<path d="M111.205 63.3508C110.542 63.2043 110.138 63.1055 110.166 62.1977C110.485 53.0939 108.255 44.6048 103.767 36.7147C103.56 36.4187 103.446 36.0685 103.437 35.7078C103.427 35.347 103.525 34.9916 103.716 34.6856C111.087 20.3514 102.426 3.05797 86.5403 0.283503C86.1517 0.213425 85.658 0.480992 85.3618 0H79.8797C78.0322 0.637076 76.0573 0.840944 74.2384 1.57677C69.5004 3.41265 65.4795 6.7254 62.771 11.0246C62.3856 11.6266 62.0161 11.8846 61.2771 11.8783C54.2329 11.7972 47.2577 13.2721 40.8493 16.1976C40.1358 16.5162 39.7599 16.3665 39.2375 15.8504C37.2938 13.8948 34.8052 12.5712 32.0971 12.0529C29.389 11.5346 26.5876 11.8456 24.0591 12.9454C21.5136 14.0571 19.362 15.9098 17.8847 18.2621C16.4074 20.6144 15.673 23.3571 15.7771 26.1328C15.8649 29.0121 16.8843 31.7852 18.6822 34.0358C19.1982 34.6729 19.2301 35.1506 18.7937 35.8769C14.7173 42.6264 12.3703 50.2779 11.9611 58.1523C11.9197 58.8658 11.7572 59.1079 11.0055 59.0824C9.89695 59.0219 8.7757 59.0378 7.67038 59.0824C6.74921 59.1096 5.8694 59.4711 5.19529 60.0995C4.52118 60.7278 4.09887 61.5801 4.00719 62.4971C3.95776 63.0105 3.9386 63.5264 3.94984 64.042C3.94984 76.3949 3.94984 88.7489 3.94984 101.104C3.94984 101.916 3.87021 102.378 2.88593 102.528C1.43021 102.741 0.735822 103.987 0 105.108V111.307C1.05755 113.571 2.86684 114.342 5.29729 114.196C7.59394 114.059 9.90332 114.196 12.2064 114.154C12.4916 114.12 12.7803 114.177 13.0306 114.318C13.2809 114.459 13.4798 114.676 13.5984 114.938C16.2709 119.515 20.2877 121.997 25.5977 121.997C30.9077 121.997 34.9181 119.493 37.5938 114.922C37.714 114.665 37.9123 114.452 38.1606 114.314C38.4088 114.176 38.6944 114.12 38.9763 114.154C45.81 114.173 52.6415 114.173 59.471 114.154C59.754 114.129 60.0379 114.193 60.2829 114.337C60.5279 114.481 60.7218 114.698 60.8375 114.957C63.5324 119.512 67.5268 122.01 72.8528 122C78.1118 122 82.0904 119.531 84.782 115.014C85.1547 114.377 85.5019 114.116 86.2377 114.151C87.6266 114.215 89.0186 114.189 90.4074 114.151C92.7646 114.11 94.3764 112.559 94.456 110.214C94.577 106.595 94.5675 102.983 93.338 99.5112C93.0194 98.6257 93.2551 98.0969 93.9495 97.4885C96.29 95.4545 98.393 93.1624 100.218 90.6559C100.782 89.8723 101.037 90.0379 101.518 90.6973C103.487 93.3857 105.5 96.0423 107.5 98.7085C107.733 99.027 107.988 99.3137 108.296 99.6928C112.189 94.472 116.234 89.4709 119.812 84.1481C125.195 76.1879 120.608 65.4277 111.205 63.3508ZM80.2365 4.08685C90.847 2.88914 100.374 9.96067 102.075 20.3577C103.002 26.0245 101.887 31.29 98.3708 35.8706C93.3475 42.4197 88.1936 48.8701 83.1002 55.3651C82.9731 55.5595 82.8602 55.7628 82.7625 55.9735C77.3219 49.023 72.0054 42.3082 66.7814 35.5169C64.3446 32.3507 63.2361 28.6557 63.0259 24.6867C62.4812 14.4552 70.193 5.22084 80.2365 4.08685ZM23.0239 18.2554C24.7704 16.6938 27.0183 15.809 29.3607 15.7611C31.703 15.7131 33.9852 16.5053 35.7941 17.9942C39.5815 21.1414 40.6422 26.5693 37.9187 30.6497C35.3704 34.4722 32.4654 38.0557 29.71 41.7412C29.6718 41.7953 29.573 41.8081 29.4488 41.8686C26.754 38.2564 23.9636 34.7015 21.3803 31.0033C18.5803 26.9929 19.3734 21.5077 23.0239 18.2554ZM11.9356 107.029C11.8793 107.421 11.8548 107.817 11.8623 108.214C11.8623 110.227 11.8623 110.227 9.80456 110.227H8.02395C6.95685 110.227 5.88658 110.185 4.81948 110.227C4.12825 110.262 3.97533 110.001 3.9594 109.348C3.88614 106.29 3.86703 106.29 6.86766 106.29C8.32974 106.29 9.79503 106.315 11.2571 106.29C11.8464 106.274 12.0344 106.449 11.9356 107.029ZM35.466 108.44C35.4108 111.047 34.3243 113.526 32.4447 115.333C30.565 117.14 28.0456 118.129 25.4384 118.082C24.1377 118.059 22.8545 117.777 21.6632 117.255C20.4718 116.732 19.3959 115.978 18.4977 115.037C17.5996 114.096 16.8969 112.986 16.4305 111.772C15.964 110.557 15.7431 109.262 15.7803 107.962C15.9205 102.547 20.4915 98.2976 26.0373 98.4409C31.2613 98.5779 35.638 103.219 35.466 108.44ZM38.9954 102.349C38.711 102.378 38.4246 102.317 38.177 102.174C37.9294 102.031 37.7332 101.814 37.6161 101.553C32.1755 92.0988 19.0836 92.1339 13.6047 101.614C13.4962 101.86 13.3106 102.066 13.0758 102.198C12.8409 102.331 12.5694 102.384 12.3019 102.349C11.1518 102.287 9.9991 102.287 8.84895 102.349C8.03668 102.404 7.89334 102.104 7.89334 101.356C7.92201 94.1662 7.89334 86.9768 7.89334 79.7906C7.89334 74.5474 7.91565 69.3043 7.87106 64.0612C7.87106 63.1724 8.08129 62.9399 8.97956 62.9494C13.507 63.0004 18.0345 63.0004 22.562 62.9494C23.4922 62.9494 23.661 63.217 23.6514 64.0803C23.6068 68.6481 23.6323 73.2159 23.6323 77.9908C26.6743 76.4746 29.5826 75.0539 32.459 73.5663C32.7706 73.3741 33.1296 73.2722 33.4958 73.2722C33.862 73.2722 34.221 73.3741 34.5327 73.5663C37.3995 75.0634 40.3109 76.4682 43.3466 77.9749V64.7555C43.3466 62.9686 43.3466 62.9686 45.1782 62.9686C49.4689 62.9686 53.7564 62.9908 58.0471 62.9494C58.8753 62.9494 59.111 63.1565 59.1079 64.0006C59.0824 76.4321 59.0824 88.8635 59.1079 101.295C59.1079 102.133 58.8785 102.353 58.0503 102.346C51.7008 102.321 45.3491 102.322 38.9954 102.349ZM39.384 71.6009C37.5779 70.6995 35.9151 69.8936 34.2874 69.0526C34.0625 68.9064 33.8007 68.8268 33.5325 68.8229C33.2642 68.8189 33.0003 68.8908 32.7712 69.0303C31.1434 69.9095 29.4647 70.6931 27.6236 71.6073V63.4464C27.6236 62.9845 27.9421 62.9781 28.2607 62.9781C31.7646 62.9781 35.2398 62.9781 38.7278 62.9781C39.3904 62.9781 39.3935 63.3158 39.3904 63.7904C39.3776 66.3132 39.384 68.8615 39.384 71.6009ZM59.162 109.459C59.2385 110.138 58.9709 110.236 58.3816 110.233C52.2763 110.216 46.1699 110.216 40.0625 110.233C39.4254 110.233 39.2693 110.036 39.3267 109.415C39.4143 108.626 39.4143 107.83 39.3267 107.041C39.2311 106.318 39.556 106.29 40.1039 106.293C43.1969 106.293 46.2899 106.293 49.3829 106.293C52.3548 106.293 55.33 106.318 58.3019 106.274C59.0505 106.274 59.2576 106.449 59.1652 107.194C59.0758 107.947 59.0747 108.707 59.162 109.459ZM72.6903 118.082C67.2433 117.955 62.8793 113.457 63.0068 108.093C63.1342 102.566 67.6638 98.304 73.2637 98.4409C78.4941 98.5747 82.8198 103.136 82.7083 108.427C82.6506 111.033 81.5651 113.51 79.6885 115.318C77.8118 117.127 75.2963 118.12 72.6903 118.082ZM83.6385 99.9253C79.0101 93.4335 69.7916 92.6881 63.784 97.9345C63.5865 98.1065 63.4655 98.3932 62.9972 98.3804C62.9972 90.7801 62.9972 83.2403 62.9972 75.7005C62.9972 75.0411 63.1469 74.8118 63.8445 74.815C69.7215 74.8436 75.5954 74.815 81.4724 74.8405C82.7466 74.8405 83.2913 75.3851 83.6735 76.8855C84.1417 78.733 84.1418 78.733 82.2178 78.733C79.8765 78.733 77.5353 78.733 75.1908 78.733C72.5183 78.7553 70.916 80.3735 70.8842 83.0524C70.8842 84.1641 70.8651 85.2821 70.8842 86.3875C70.932 88.9167 72.5629 90.5508 75.0857 90.5667C78.6183 90.5858 82.1509 90.6144 85.6835 90.5444C86.7251 90.5221 87.1902 90.7451 87.4323 91.844C88.1394 95.0517 88.9772 98.2339 89.8085 101.4C90.006 102.146 89.8691 102.451 89.0759 102.333C89.0357 102.329 88.9951 102.329 88.9549 102.333C86.6741 102.627 85.1611 102.044 83.6385 99.9126V99.9253ZM84.2437 82.7243C84.5367 82.7243 84.9827 82.5363 85.0974 82.8995C85.4515 84.0299 85.746 85.1783 85.9797 86.3397C86.0562 86.741 85.572 86.5913 85.3426 86.5945C83.6799 86.6105 82.0171 86.5945 80.3544 86.5945C78.8094 86.5945 77.2645 86.569 75.7196 86.5945C75.0825 86.5945 74.8372 86.5021 74.8245 85.779C74.7735 82.6924 74.7449 82.6924 77.8315 82.6924C79.9689 82.6956 82.1063 82.6892 84.2437 82.7051V82.7243ZM88.4548 110.246C86.5945 110.246 86.5945 110.246 86.6104 108.363C86.6104 106.318 86.6104 106.318 88.6395 106.318C90.5858 106.318 90.5858 106.318 90.5858 108.306C90.5858 110.227 90.5858 110.227 88.4548 110.227V110.246ZM97.4057 85.177C98.2084 86.2632 98.2848 86.9226 97.4248 87.9802C95.7461 90.0411 94.077 92.0957 92.0096 94.0324C91.3726 91.4841 90.7355 89.0887 90.1494 86.6773C89.2479 83.0651 88.3656 79.4465 87.4609 75.8471C86.6391 72.5789 84.4889 70.8842 81.1188 70.8778C75.4361 70.8778 69.7566 70.8492 64.0802 70.897C63.1597 70.897 62.9526 70.6389 62.9813 69.7661C63.045 67.6638 63.0099 65.5583 63.0004 63.4527C63.0004 60.6337 61.481 59.1111 58.6619 59.1111C44.8395 59.1111 31.0181 59.1185 17.1979 59.1333C16.1021 59.1333 15.8313 58.8977 15.9237 57.7668C16.4875 50.8195 18.472 44.2194 21.8357 38.5048C22.2371 38.6609 22.3996 39.0496 22.6321 39.3617C24.7822 42.2286 26.9355 45.0636 29.057 47.9368C29.4361 48.4496 29.6272 48.542 30.054 47.9654C33.6471 43.1205 37.3549 38.3615 40.8525 33.4496C43.5823 29.6272 44.0665 25.3333 42.4452 20.8865C42.1617 20.1061 42.2923 19.8513 43.0472 19.5264C48.2316 17.2968 53.7811 16.0379 59.42 15.8122C60.2036 15.7772 60.4139 15.8441 60.159 16.7392C57.856 24.881 59.2034 32.3475 64.4529 39.0368C70.5051 46.7486 76.5574 54.4445 82.6988 62.2614L100.734 39.3267C102.905 43.2248 104.465 47.4328 105.36 51.8038C106.074 55.227 106.394 58.7207 106.315 62.2168C106.315 62.9303 106.076 63.2298 105.36 63.4018C95.3384 65.8035 91.277 76.8568 97.4057 85.1579V85.177ZM116.308 82.4567C113.817 85.846 111.265 89.1874 108.774 92.5734C108.325 93.1819 108.137 93.0035 107.774 92.5225C105.289 89.1747 102.748 85.8778 100.301 82.5045C99.0869 80.8393 98.4327 78.8316 98.4327 76.7708C98.4327 74.7099 99.0869 72.7023 100.301 71.0371C101.516 69.3503 103.235 68.092 105.21 67.443C107.185 66.794 109.315 66.7876 111.294 67.4249C115.295 68.6991 118.009 72.3686 118.095 76.2197C118.133 78.7617 117.569 80.727 116.308 82.4376V82.4567Z" fill="#5C5C5C"/>
</svg>
